<?xml version="1.0" encoding="UTF-8" standalone="no"?>
<!-- Created with Inkscape (http://www.inkscape.org/) -->

<svg
   width="191.31668mm"
   height="200.25343mm"
   viewBox="0 0 191.31668 200.25343"
   version="1.1"
   id="svg5"
   xml:space="preserve"
   inkscape:export-filename="Documents/msc/science-day-2024-magali/assets/geomag.svg"
   inkscape:export-xdpi="96"
   inkscape:export-ydpi="96"
   inkscape:version="1.2.2 (b0a8486541, 2022-12-01)"
   sodipodi:docname="drawing.svg"
   xmlns:inkscape="http://www.inkscape.org/namespaces/inkscape"
   xmlns:sodipodi="http://sodipodi.sourceforge.net/DTD/sodipodi-0.dtd"
   xmlns="http://www.w3.org/2000/svg"
   xmlns:svg="http://www.w3.org/2000/svg"><sodipodi:namedview
     id="namedview7"
     pagecolor="#ffffff"
     bordercolor="#000000"
     borderopacity="0.25"
     inkscape:showpageshadow="2"
     inkscape:pageopacity="0.0"
     inkscape:pagecheckerboard="0"
     inkscape:deskcolor="#d1d1d1"
     inkscape:document-units="mm"
     showgrid="false"
     inkscape:zoom="0.3464605"
     inkscape:cx="47.624477"
     inkscape:cy="632.10669"
     inkscape:window-width="1280"
     inkscape:window-height="648"
     inkscape:window-x="0"
     inkscape:window-y="0"
     inkscape:window-maximized="1"
     inkscape:current-layer="g1123" /><defs
     id="defs2" /><g
     inkscape:label="Layer 1"
     inkscape:groupmode="layer"
     id="layer1"
     transform="translate(-7.5121314,-245.93046)"><g
       transform="matrix(0.26458333,0,0,0.26458333,119.05359,145.12144)"
       fill="none"
       style="fill:none"
       id="g1135"><g
         transform="rotate(-23.5)"
         stroke-width="1.8"
         stroke="#b3b3b3"
         id="g1123"><path
           d="m -554.08708,675.68477 c 0.35356,-22.55723 11.50172,-43.40414 29.67809,-58.04965 15.51517,-12.50125 36.15118,-20.48407 59.56561,-21.15529 41.40441,-1.1887 85.69714,23.96574 91.98837,39.01168 2.24469,5.37526 3.70249,13.82998 3.33598,37.21325 -0.36651,23.38326 -2.09014,31.88936 -4.50451,37.33983 -6.7662,15.25677 -51.87009,41.8546 -93.25819,42.00266 -50.82501,0.18397 -87.46071,-34.55063 -86.80535,-76.36248"
           id="path1083"
           style="stroke:#000000;stroke-width:1.37711;stroke-opacity:1"
           sodipodi:nodetypes="csccsccc"
           inkscape:export-filename="Documents/msc/science-day-2024-magali/assets/geomag.svg"
           inkscape:export-xdpi="96"
           inkscape:export-ydpi="96" /><path
           d="m -742.44723,678.72601 c 0.35884,-22.894 6.48885,-45.64827 18.03068,-66.49458 21.08227,-38.10517 56.81345,-65.07741 98.68216,-78.68654 59.84845,-19.4533 132.23756,-11.60208 192.30796,30.06741 24.05291,16.68464 59.14048,50.17094 64.8083,71.81081 1.60679,6.16194 2.61054,14.7327 2.25791,37.23064 -0.35263,22.49795 -1.62563,31.10547 -3.42645,37.32243 -6.34922,21.8339 -42.50454,56.47047 -67.09279,73.94047 v 0 c -104.36671,74.15408 -241.2718,51.72166 -289.61295,-39.24478 -10.89403,-20.48406 -16.31366,-43.05185 -15.95482,-65.94586"
           id="path1085"
           style="fill:none;fill-opacity:1;stroke:#000000;stroke-width:1.37575;stroke-dasharray:none;stroke-opacity:1"
           sodipodi:nodetypes="ccsccscsscc" /><path
           d="m -573.56273,366.00678 c 58.66732,39.70778 100.19748,82.42086 128.39558,117.56221 21.48441,26.77456 35.22947,49.15367 42.91812,62.45917 2.60499,4.50763 33.84966,59.0886 38.09395,89.32289 0.94298,6.67732 1.47689,15.41094 1.13461,37.24878 -0.34229,21.83784 -1.15031,30.59313 -2.30315,37.30429 -5.19421,30.37115 -38.15081,85.97318 -40.91402,90.59854 v 0 c -18.75372,31.35872 -71.43257,112.31025 -177.04513,185.64594"
           id="path1087"
           style="stroke:#000000;stroke-width:1.37711;stroke-opacity:1"
           sodipodi:nodetypes="csccscssc" /><path
           d="m -425.48419,296.84569 c 29.60865,104.14158 45.52479,185.53838 54.266,240.94852 2.27579,14.45085 10.63314,68.86563 11.6317,97.48307 0.23797,6.93716 0.32586,15.75562 -0.0113,37.26729 -0.33717,21.51167 -0.70162,30.33743 -1.15723,37.28579 -1.89639,28.66418 -11.95652,83.36857 -14.69424,97.90812 -10.48294,55.71277 -28.95952,137.67264 -61.84859,242.82332"
           id="path1089"
           style="stroke:#000000;stroke-width:1.37711;stroke-opacity:1" /><path
           d="m -278.45999,294.47185 c -32.88907,105.15066 -51.36553,187.10276 -61.84859,242.8233 -2.73006,14.53167 -12.79785,69.24395 -14.69424,97.90812 -0.45561,6.94836 -0.82006,15.77412 -1.15723,37.28579 -0.33717,21.51167 -0.24928,30.33014 -0.0113,37.26729 0.99856,28.61744 9.34849,83.02458 11.6317,97.48307 8.74133,55.40238 24.65735,136.80694 54.266,240.94848"
           id="path1091"
           style="stroke:#000000;stroke-width:1.37711;stroke-opacity:1" /><path
           d="m -132.47506,358.88503 c -105.61258,73.33569 -158.29143,154.28722 -177.04515,185.64594 -2.74765,4.59405 -35.71957,60.21186 -40.91402,90.59854 -1.15284,6.71116 -1.96086,15.46645 -2.30315,37.30429 -0.34228,21.83784 0.19163,30.57146 1.13461,37.24879 4.24453,30.21875 35.47437,84.78443 38.09395,89.32288 0,0 0,0 0,0 17.77994,30.76885 67.94717,110.05984 171.31371,180.02138"
           id="path1093"
           style="stroke:#000000;stroke-width:1.37711;stroke-opacity:1" /><path
           d="m 26.6894,666.30762 c 0.35884,-22.89401 -5.06079,-45.4618 -15.95482,-65.94586 -48.34115,-90.96644 -185.24624,-113.39886 -289.61296,-39.24477 -24.58826,17.46999 -60.74358,52.10657 -67.0928,73.94046 -1.80082,6.21697 -3.07382,14.82448 -3.42645,37.32243 -0.35263,22.49794 0.65112,31.0687 2.25791,37.23065 5.66782,21.63987 40.75539,55.12616 64.80831,71.8108 0,0 0,0 0,0 102.0944,70.82059 239.77219,43.95478 290.9901301,-48.61913 C 20.20055,711.9559 26.33056,689.20163 26.6894,666.30762 Z"
           id="path1095"
           style="stroke:#000000;stroke-width:1.37711;stroke-opacity:1" /><path
           d="m -161.67075,669.34886 c 0.65536,-41.81185 -35.98034,-76.54644 -86.80536,-76.36248 -41.38811,0.14807 -86.492,26.74589 -93.2582,42.00266 -2.41437,5.45048 -4.138,13.95657 -4.50451,37.33984 -0.36651,23.38326 1.09129,31.83799 3.33598,37.21324 6.29123,15.04595 50.58396,40.20038 91.98838,39.01169 50.84498,-1.45759 88.58836,-37.3931 89.24371,-79.20495 z"
           id="path1097"
           style="stroke:#000000;stroke-width:1.37711;stroke-opacity:1" /><ellipse
           cx="-347.47116"
           cy="666.9892"
           style="opacity:0.95;fill:none;stroke:#008000;stroke-width:2.29577"
           id="circle1107"
           rx="131.94846"
           ry="135.92075"
           transform="matrix(0.99986968,-0.01614378,-0.01567198,0.99987719,0,0)" /><rect
           width="45.239471"
           height="74.562233"
           x="-370.09091"
           y="629.70813"
           style="fill:#ffffff;stroke:none;stroke-width:1.37746"
           id="rect1109"
           transform="matrix(0.99986968,-0.01614378,-0.01567198,0.99987719,0,0)" /><rect
           width="45.239471"
           height="37.281116"
           x="-370.09091"
           y="666.9892"
           style="fill:#ff0000;stroke:none;stroke-width:1.37746"
           id="rect1111"
           transform="matrix(0.99986968,-0.01614378,-0.01567198,0.99987719,0,0)" /><rect
           width="45.239471"
           height="74.562233"
           x="-370.09091"
           y="629.70813"
           style="fill:none;stroke:#000000;stroke-width:1.14788"
           id="rect1113"
           transform="matrix(0.99986968,-0.01614378,-0.01567198,0.99987719,0,0)" /><text
           x="-352.57343"
           y="653.94397"
           transform="matrix(0.9854001,-0.01591016,-0.01591016,1.0150731,0,0)"
           xml:space="preserve"
           style="font-style:normal;font-variant:normal;font-weight:normal;font-stretch:normal;font-size:47.4339px;line-height:100%;font-family:Calibri;-inkscape-font-specification:Calibri;text-align:center;writing-mode:lr-tb;text-anchor:middle;fill:#ff0000;fill-opacity:1;stroke:none;stroke-width:1.37711"
           id="text1116"><tspan
             x="-352.57343"
             y="653.94397"
             id="tspan3180"
             style="stroke-width:1.37711">S</tspan></text><text
           x="-352.57343"
           y="690.66699"
           transform="matrix(0.9854001,-0.01591016,-0.01591016,1.0150731,0,0)"
           xml:space="preserve"
           style="font-style:normal;font-variant:normal;font-weight:normal;font-stretch:normal;font-size:47.4339px;line-height:100%;font-family:Calibri;-inkscape-font-specification:Calibri;text-align:center;writing-mode:lr-tb;text-anchor:middle;fill:#ffffff;fill-opacity:1;stroke:none;stroke-width:1.37711"
           id="text1119"><tspan
             x="-352.57343"
             y="690.66699"
             id="tspan3181"
             style="stroke-width:1.37711">N</tspan></text></g></g></g></svg>
