<?xml version="1.0" encoding="UTF-8" standalone="no"?>
<!-- Created with Inkscape (http://www.inkscape.org/) -->

<svg
   width="210mm"
   height="297mm"
   viewBox="0 0 210 297"
   version="1.1"
   id="svg5"
   xml:space="preserve"
   inkscape:export-filename="Documents/msc/science-day-2024-magali/assets/geomag.svg"
   inkscape:export-xdpi="96"
   inkscape:export-ydpi="96"
   inkscape:version="1.2.2 (b0a8486541, 2022-12-01)"
   sodipodi:docname="drawing.svg"
   xmlns:inkscape="http://www.inkscape.org/namespaces/inkscape"
   xmlns:sodipodi="http://sodipodi.sourceforge.net/DTD/sodipodi-0.dtd"
   xmlns="http://www.w3.org/2000/svg"
   xmlns:svg="http://www.w3.org/2000/svg"><sodipodi:namedview
     id="namedview7"
     pagecolor="#ffffff"
     bordercolor="#000000"
     borderopacity="0.25"
     inkscape:showpageshadow="2"
     inkscape:pageopacity="0.0"
     inkscape:pagecheckerboard="0"
     inkscape:deskcolor="#d1d1d1"
     inkscape:document-units="mm"
     showgrid="false"
     inkscape:zoom="0.692921"
     inkscape:cx="924.3478"
     inkscape:cy="461.81311"
     inkscape:window-width="1920"
     inkscape:window-height="1048"
     inkscape:window-x="0"
     inkscape:window-y="0"
     inkscape:window-maximized="1"
     inkscape:current-layer="g1123" /><defs
     id="defs2" /><g
     inkscape:label="Layer 1"
     inkscape:groupmode="layer"
     id="layer1"><g
       transform="matrix(0.26458333,0,0,0.26458333,119.05359,145.12144)"
       fill="none"
       style="fill:none"
       id="g1135"><g
         transform="rotate(-23.5)"
         stroke-width="1.8"
         stroke="#b3b3b3"
         id="g1123"><path
           d="m -175.12965,-170.41027 c 0.65535,-41.81185 38.39873,-77.74736 89.243707,-79.20494 41.404413,-1.1887 85.69713804,23.96574 91.988368,39.01168 2.24469,5.37526 3.70249,13.82999 3.33598,37.21325 -0.36651,23.38326 -2.09014,31.88936 -4.50451,37.33983 -6.7662,15.25677 -51.870088,41.854602 -93.258188,42.002662 -50.825017,0.18397 -87.460717,-34.550622 -86.805357,-76.362482"
           id="path1083"
           style="stroke-width:1.37711" /><path
           d="m -363.4898,-167.36902 c 0.35884,-22.89401 6.48885,-45.64828 18.03068,-66.49459 51.21794,-92.57391 188.89573,-119.43972 290.990127,-48.61913 24.052913,16.68464 59.140478,50.17094 64.808298,71.81081 1.60679,6.16195 2.61054,14.7327 2.25791,37.23065 -0.35263,22.49794 -1.62563,31.10546 -3.42645,37.32243 -6.34922,21.8339 -42.504535,56.470462 -67.092788,73.940462 0,0 0,0 0,0 -104.366717,74.154082 -241.271807,51.72166 -289.612957,-39.244782 -10.89403,-20.48406 -16.31366,-43.05185 -15.95482,-65.94585"
           id="path1085"
           style="stroke-width:1.37711" /><path
           d="m -194.6053,-480.08826 c 103.366547,69.96154 153.53377,149.25253 171.31371,180.02138 2.604985,4.50763 33.849655,59.0886 38.093945,89.32289 0.94298,6.67733 1.47689,15.41095 1.13461,37.24878 -0.34229,21.83784 -1.15031,30.59313 -2.30315,37.3043 -5.19421,30.37114 -38.150805,85.973172 -40.914015,90.598532 0,0 0,0 0,0 -18.753723,31.35872 -71.432573,112.310252 -177.04514,185.645938"
           id="path1087"
           style="stroke-width:1.37711" /><path
           d="m -46.526753,-549.24935 c 29.608648,104.14158 45.524788,185.53838 54.265998,240.94852 2.27579,14.45085 10.63314,68.86563 11.6317,97.48307 0.23797,6.93716 0.32586,15.75562 -0.0113,37.26729 -0.33717,21.51167 -0.70162,30.33744 -1.15723,37.28579 -1.89639,28.66418 -11.95652,83.368572 -14.69424,97.908122 C -6.974765,17.356214 -25.45134,99.316084 -58.340413,204.46674"
           id="path1089"
           style="stroke-width:1.37711" /><path
           d="m 100.49745,-551.62319 c -32.889075,105.15066 -51.365535,187.10276 -61.848595,242.8233 -2.73006,14.53167 -12.79785,69.24395 -14.69424,97.90812 -0.45561,6.94836 -0.82006,15.77413 -1.15723,37.2858 -0.33717,21.51167 -0.24928,30.33013 -0.0113,37.26729 0.99856,28.61743 9.34849,83.024572 11.6317,97.483062 8.74133,55.402382 24.65735,136.806942 54.265996,240.948518"
           id="path1091"
           style="stroke-width:1.37711" /><path
           d="m 246.48237,-487.21001 c -105.61258,73.33569 -158.291425,154.28722 -177.045145,185.64594 -2.74765,4.59405 -35.71957,60.21186 -40.91402,90.59854 -1.15284,6.71117 -1.96086,15.46646 -2.30315,37.30429 -0.34228,21.83784 0.19163,30.57147 1.13461,37.24879 4.24453,30.21875 35.47437,84.784432 38.09395,89.322882 0,0 0,0 0,0 17.779939,30.76885 67.947165,110.059842 171.313705,180.021378"
           id="path1093"
           style="stroke-width:1.37711" /><path
           d="m 405.64683,-179.78742 c 0.35884,-22.894 -5.06079,-45.4618 -15.95482,-65.94586 -48.34115,-90.96644 -185.24624,-113.39886 -289.61296,-39.24477 -24.588255,17.46999 -60.743575,52.10657 -67.092795,73.94046 -1.80082,6.21697 -3.07382,14.82449 -3.42645,37.32243 -0.35263,22.49795 0.65112,31.0687 2.25791,37.23065 5.66782,21.63988 40.75539,55.126162 64.808304,71.810802 0,0 0,0 0,0 102.094401,70.8205919 239.772191,43.95478 290.990131,-48.619122 11.54183,-20.84631 17.67184,-43.60058 18.03068,-66.49459 z"
           id="path1095"
           style="stroke-width:1.37711" /><path
           d="m 217.28668,-176.74618 c 0.65536,-41.81185 -35.98034,-76.54644 -86.80536,-76.36248 -41.388107,0.14807 -86.491995,26.74589 -93.258195,42.00266 -2.41437,5.45048 -4.138,13.95658 -4.50451,37.33984 -0.36651,23.38326 1.09129,31.83799 3.33598,37.21324 6.29123,15.04595 50.583958,40.200382 91.988375,39.011692 50.84498,-1.45759 88.58836,-37.393092 89.24371,-79.204952 z"
           id="path1097"
           style="stroke-width:1.37711" /><ellipse
           cx="18.36491"
           cy="-173.30302"
           style="opacity:0.95;fill:none;stroke:#008000;stroke-width:2.29577"
           id="circle1107"
           rx="131.94846"
           ry="135.92075"
           transform="matrix(0.99986968,-0.01614378,-0.01567198,0.99987719,0,0)" /><rect
           width="45.239471"
           height="74.562233"
           x="-4.2548227"
           y="-210.58414"
           style="fill:#ffffff;stroke:none;stroke-width:1.37746"
           id="rect1109"
           transform="matrix(0.99986968,-0.01614378,-0.01567198,0.99987719,0,0)" /><rect
           width="45.239471"
           height="37.281116"
           x="-4.2548227"
           y="-173.30302"
           style="fill:#ff0000;stroke:none;stroke-width:1.37746"
           id="rect1111"
           transform="matrix(0.99986968,-0.01614378,-0.01567198,0.99987719,0,0)" /><rect
           width="45.239471"
           height="74.562233"
           x="-4.2548227"
           y="-210.58414"
           style="fill:none;stroke:#000000;stroke-width:1.14788"
           id="rect1113"
           transform="matrix(0.99986968,-0.01614378,-0.01567198,0.99987719,0,0)" /><text
           x="18.634575"
           y="-173.76888"
           transform="matrix(0.9854001,-0.01591016,-0.01591016,1.0150731,0,0)"
           xml:space="preserve"
           style="font-style:normal;font-variant:normal;font-weight:normal;font-stretch:normal;font-size:47.4339px;line-height:100%;font-family:Calibri;-inkscape-font-specification:Calibri;text-align:center;writing-mode:lr-tb;text-anchor:middle;fill:#ff0000;fill-opacity:1;stroke:none;stroke-width:1.37711"
           id="text1116"><tspan
             x="18.634575"
             y="-173.76888"
             id="tspan3180"
             style="stroke-width:1.37711">S</tspan></text><text
           x="18.634575"
           y="-137.04588"
           transform="matrix(0.9854001,-0.01591016,-0.01591016,1.0150731,0,0)"
           xml:space="preserve"
           style="font-style:normal;font-variant:normal;font-weight:normal;font-stretch:normal;font-size:47.4339px;line-height:100%;font-family:Calibri;-inkscape-font-specification:Calibri;text-align:center;writing-mode:lr-tb;text-anchor:middle;fill:#ffffff;fill-opacity:1;stroke:none;stroke-width:1.37711"
           id="text1119"><tspan
             x="18.634575"
             y="-137.04588"
             id="tspan3181"
             style="stroke-width:1.37711">N</tspan></text></g></g></g></svg>
